<?xml version="1.0" encoding="iso-8859-1"?>
<!-- Generator: Adobe Illustrator 19.1.0, SVG Export Plug-In . SVG Version: 6.00 Build 0)  -->
<svg version="1.1" id="Capa_1" xmlns="http://www.w3.org/2000/svg" xmlns:xlink="http://www.w3.org/1999/xlink" x="0px" y="0px"
	 viewBox="0 0 387.04 387.04" style="enable-background:new 0 0 387.04 387.04;" xml:space="preserve">
<g>
	<path style="fill:#CE0649;" d="M247.1,293.88c0,4.9-1.44,6.27-1.92,6.72c-4.11,3.91-17.76,3.22-30.97,2.56
		c-6.27-0.32-13.38-0.67-20.69-0.67s-14.43,0.35-20.7,0.67c-13.2,0.66-26.86,1.35-30.97-2.56c-0.47-0.45-1.92-1.82-1.92-6.72
		c0-9.18,5.23-18,14.71-24.82c5.5-3.95,12.01-6.95,19.14-8.88v9.55c0,4.42,3.58,8,8,8s8-3.58,8-8V257.7c1.24-0.06,2.48-0.1,3.74-0.1
		c14.78,0,28.59,4.07,38.87,11.46C241.88,275.88,247.1,284.7,247.1,293.88z"/>
	<path style="fill:#F9C5EE;" d="M349.71,198.44c12.29,3.5,21.33,14.81,21.33,28.21c0,13.39-9.04,24.71-21.33,28.2V198.44z"/>
	<path style="fill:#F9C5EE;" d="M37.32,198.44v56.41C25.03,251.36,16,240.04,16,226.65C16,213.25,25.03,201.94,37.32,198.44z"/>
	<path style="fill:#FCD9EB;" d="M333.71,175.33v83.43c0,35.13-12.86,59.43-39.32,74.29c-22.6,12.69-55.6,18.86-100.87,18.86
		c-22.64,0-42.21-1.54-58.94-4.67c-16.74-3.13-30.64-7.85-41.94-14.19c-26.46-14.86-39.32-39.16-39.32-74.29v-83.43
		c0-63.31,42.19-116.94,99.92-134.29c43.98,0.56,67.41,32.31,67.41,55.3c0,17.6-14.33,31.93-31.94,31.93
		c-13.2,0-23.94-10.74-23.94-23.95c0-9.68,7.87-17.56,17.55-17.56c4.42,0,8-3.58,8-8c0-4.41-3.58-8-8-8
		c-18.5,0-33.55,15.06-33.55,33.56c0,22.03,17.92,39.95,39.94,39.95c26.43,0,47.94-21.5,47.94-47.93c0-16.61-8.35-34.47-22.32-47.79
		c-5.59-5.33-11.95-9.81-18.89-13.39C271.86,36.19,333.71,98.67,333.71,175.33z M300.6,228.13c3.13-3.13,3.13-8.19,0-11.32
		c-5.89-5.89-13.73-9.14-22.07-9.14s-16.18,3.25-22.08,9.14c-3.12,3.13-3.12,8.19,0,11.32c3.13,3.12,8.19,3.12,11.32,0
		c2.87-2.88,6.69-4.46,10.76-4.46c4.06,0,7.89,1.58,10.76,4.46c1.56,1.56,3.61,2.34,5.66,2.34
		C296.99,230.47,299.04,229.69,300.6,228.13z M256.21,312.2c4.57-4.35,6.89-10.51,6.89-18.32c0-14.47-7.59-27.9-21.37-37.81
		c-12.98-9.33-30.1-14.47-48.21-14.47s-35.24,5.14-48.22,14.47c-13.78,9.91-21.37,23.34-21.37,37.81c0,7.81,2.32,13.97,6.9,18.32
		c6.35,6.04,15.55,7.49,26.96,7.49c4.89,0,10.18-0.27,15.83-0.55c6.39-0.32,12.99-0.65,19.9-0.65c6.91,0,13.51,0.33,19.89,0.65
		C232.25,320.09,247.12,320.83,256.21,312.2z M130.58,228.13c3.12-3.13,3.12-8.19,0-11.32c-12.17-12.17-31.98-12.17-44.15,0
		c-3.12,3.13-3.12,8.19,0,11.32c3.12,3.12,8.19,3.12,11.31,0c5.94-5.94,15.59-5.94,21.53,0c1.56,1.56,3.6,2.34,5.65,2.34
		C126.97,230.47,129.02,229.69,130.58,228.13z"/>
	<path style="fill:#333333;" d="M349.71,182.05c21.19,3.79,37.33,22.34,37.33,44.6c0,22.45-16.42,41.13-37.87,44.7
		c-3.02,34.41-18.77,59.83-46.95,75.65c-25.05,14.07-60.61,20.91-108.7,20.91S109.87,361.07,84.81,347
		c-28.18-15.82-43.92-41.24-46.94-75.65C16.41,267.78,0,249.1,0,226.65c0-22.26,16.13-40.81,37.32-44.6v-6.72
		c0-86.13,70.07-156.2,156.2-156.2c86.12,0,156.19,70.07,156.19,156.2V182.05z M371.04,226.65c0-13.4-9.04-24.71-21.33-28.21v56.41
		C362,251.36,371.04,240.04,371.04,226.65z M333.71,258.76v-83.43c0-76.66-61.85-139.14-138.27-140.17
		c6.94,3.58,13.3,8.06,18.89,13.39c13.97,13.32,22.32,31.18,22.32,47.79c0,26.43-21.51,47.93-47.94,47.93
		c-22.02,0-39.94-17.92-39.94-39.95c0-18.5,15.05-33.56,33.55-33.56c4.42,0,8,3.59,8,8c0,4.42-3.58,8-8,8
		c-9.68,0-17.55,7.88-17.55,17.56c0,13.21,10.74,23.95,23.94,23.95c17.61,0,31.94-14.33,31.94-31.93c0-22.99-23.43-54.74-67.41-55.3
		c-57.73,17.35-99.92,70.98-99.92,134.29v83.43c0,35.13,12.86,59.43,39.32,74.29c11.3,6.34,25.2,11.06,41.94,14.19
		c16.73,3.13,36.3,4.67,58.94,4.67c45.27,0,78.27-6.17,100.87-18.86C320.85,318.19,333.71,293.89,333.71,258.76z M37.32,254.85
		v-56.41C25.03,201.94,16,213.25,16,226.65C16,240.04,25.03,251.36,37.32,254.85z"/>
	<path style="fill:#333333;" d="M300.6,216.81c3.13,3.13,3.13,8.19,0,11.32c-1.56,1.56-3.61,2.34-5.65,2.34
		c-2.05,0-4.1-0.78-5.66-2.34c-2.87-2.88-6.7-4.46-10.76-4.46c-4.07,0-7.89,1.58-10.76,4.46c-3.13,3.12-8.19,3.12-11.32,0
		c-3.12-3.13-3.12-8.19,0-11.32c5.9-5.89,13.74-9.14,22.08-9.14S294.71,210.92,300.6,216.81z"/>
	<path style="fill:#333333;" d="M130.58,216.81c3.12,3.13,3.12,8.19,0,11.32c-1.56,1.56-3.61,2.34-5.66,2.34
		c-2.05,0-4.09-0.78-5.65-2.34c-5.94-5.94-15.59-5.94-21.53,0c-3.12,3.12-8.19,3.12-11.31,0c-3.12-3.13-3.12-8.19,0-11.32
		C98.6,204.64,118.41,204.64,130.58,216.81z"/>
	<path style="fill:#333333;" d="M241.73,256.07c-12.98-9.33-30.1-14.47-48.21-14.47c-4.4,0-8.73,0.3-12.96,0.9
		c-13.22,1.84-25.43,6.5-35.26,13.57c-13.78,9.91-21.37,23.34-21.37,37.81c0,7.81,2.32,13.97,6.9,18.32
		c6.35,6.04,15.55,7.49,26.96,7.49c4.89,0,10.18-0.27,15.83-0.55c6.39-0.32,12.99-0.65,19.9-0.65s13.51,0.33,19.89,0.65
		c18.84,0.95,33.71,1.69,42.8-6.94c4.57-4.35,6.89-10.51,6.89-18.32C263.1,279.41,255.51,265.98,241.73,256.07z M245.18,300.6
		c-4.11,3.91-17.76,3.22-30.97,2.56c-6.27-0.32-13.38-0.67-20.69-0.67c-7.31,0-14.43,0.35-20.7,0.67
		c-13.2,0.66-26.86,1.35-30.97-2.56c-0.47-0.45-1.92-1.82-1.92-6.72c0-9.18,5.23-18,14.71-24.82c5.5-3.95,12.01-6.96,19.14-8.89
		c5.07-1.38,10.44-2.22,16-2.48c1.24-0.06,2.48-0.09,3.74-0.09c14.78,0,28.59,4.07,38.87,11.46c9.49,6.82,14.71,15.64,14.71,24.82
		C247.1,298.78,245.66,300.15,245.18,300.6z"/>
	<path style="fill:#FFFFFF;" d="M189.78,257.69v12.04c0,4.42-3.58,8-8,8c-4.42,0-8-3.58-8-8v-9.56
		C178.85,258.79,184.22,257.95,189.78,257.69z"/>
</g>
<g>
</g>
<g>
</g>
<g>
</g>
<g>
</g>
<g>
</g>
<g>
</g>
<g>
</g>
<g>
</g>
<g>
</g>
<g>
</g>
<g>
</g>
<g>
</g>
<g>
</g>
<g>
</g>
<g>
</g>
</svg>
